<svg xmlns="http://www.w3.org/2000/svg" width="1920" height="1080"><path d="M29,-229L334,-199L910,-214Z" fill="#80518c" stroke="#80518c" stroke-width="1.51"/><path d="M993,1255L436,1314L1164,1280Z" fill="#7f9a83" stroke="#7f9a83" stroke-width="1.51"/><path d="M29,-229L910,-214L1187,-220Z" fill="#946b9a" stroke="#946b9a" stroke-width="1.51"/><path d="M910,-214L972,-212L1187,-220Z" fill="#9b7c9e" stroke="#9b7c9e" stroke-width="1.51"/><path d="M1164,1280L436,1314L1393,1289Z" fill="#7e9e81" stroke="#7e9e81" stroke-width="1.51"/><path d="M29,-229L1187,-220L1747,-227Z" fill="#9c7b9f" stroke="#9c7b9f" stroke-width="1.51"/><path d="M1187,-220L1579,-183L1747,-227Z" fill="#756e74" stroke="#756e74" stroke-width="1.51"/><path d="M1393,1289L436,1314L1994,1305Z" fill="#69976b" stroke="#69976b" stroke-width="1.51"/><path d="M1751,1285L1393,1289L1994,1305Z" fill="#2d783c" stroke="#2d783c" stroke-width="1.51"/><path d="M2076,732L1950,858L2082,950Z" fill="#5e9b63" stroke="#5e9b63" stroke-width="1.51"/><path d="M1995,-93L2077,85L2089,-110Z" fill="#55525b" stroke="#55525b" stroke-width="1.51"/><path d="M2076,732L2082,950L2107,970Z" fill="#529058" stroke="#529058" stroke-width="1.51"/><path d="M2089,-110L2077,85L2108,180Z" fill="#5a6063" stroke="#5a6063" stroke-width="1.51"/><path d="M2108,180L1961,285L2108,339Z" fill="#73867a" stroke="#73867a" stroke-width="1.51"/><path d="M2089,-110L2108,180L2138,427Z" fill="#64706d" stroke="#64706d" stroke-width="1.51"/><path d="M2108,180L2108,339L2138,427Z" fill="#738679" stroke="#738679" stroke-width="1.51"/><path d="M1995,1063L1957,1117L2140,1184Z" fill="#1f7236" stroke="#1f7236" stroke-width="1.51"/><path d="M1994,1305L2136,1290L2140,1184Z" fill="#075524" stroke="#075524" stroke-width="1.51"/><path d="M1957,1117L1994,1305L2140,1184Z" fill="#11652d" stroke="#11652d" stroke-width="1.51"/><path d="M2107,970L1995,1063L2140,1184Z" fill="#277539" stroke="#277539" stroke-width="1.51"/><path d="M2009,607L2076,732L2141,604Z" fill="#79a17c" stroke="#79a17c" stroke-width="1.51"/><path d="M2058,524L2009,607L2141,604Z" fill="#80a484" stroke="#80a484" stroke-width="1.51"/><path d="M2138,427L2058,524L2141,604Z" fill="#809d84" stroke="#809d84" stroke-width="1.51"/><path d="M2076,732L2107,970L2141,604Z" fill="#66986a" stroke="#66986a" stroke-width="1.51"/><path d="M2107,970L2140,1184L2141,604Z" fill="#47874e" stroke="#47874e" stroke-width="1.51"/><path d="M2108,339L1969,373L2138,427Z" fill="#7d9481" stroke="#7d9481" stroke-width="1.51"/><path d="M1969,373L2058,524L2138,427Z" fill="#819c85" stroke="#819c85" stroke-width="1.51"/><path d="M1747,-227L1884,-133L2052,-171Z" fill="#4e4f51" stroke="#4e4f51" stroke-width="1.51"/><path d="M1967,741L1950,858L2076,732Z" fill="#6da470" stroke="#6da470" stroke-width="1.51"/><path d="M1995,-93L1964,76L2077,85Z" fill="#5d6365" stroke="#5d6365" stroke-width="1.51"/><path d="M2082,950L1995,1063L2107,970Z" fill="#388445" stroke="#388445" stroke-width="1.51"/><path d="M2077,85L1945,152L2108,180Z" fill="#66746f" stroke="#66746f" stroke-width="1.51"/><path d="M1945,152L1961,285L2108,180Z" fill="#708379" stroke="#708379" stroke-width="1.51"/><path d="M1961,285L1969,373L2108,339Z" fill="#7d9482" stroke="#7d9482" stroke-width="1.51"/><path d="M1884,-133L1994,-133L2052,-171Z" fill="#4c4a50" stroke="#4c4a50" stroke-width="1.51"/><path d="M2009,607L1967,741L2076,732Z" fill="#79a77b" stroke="#79a77b" stroke-width="1.51"/><path d="M1964,76L1945,152L2077,85Z" fill="#65746f" stroke="#65746f" stroke-width="1.51"/><path d="M2052,-171L1994,-133L2089,-110Z" fill="#49444d" stroke="#49444d" stroke-width="1.51"/><path d="M1994,-133L1995,-93L2089,-110Z" fill="#4f4a53" stroke="#4f4a53" stroke-width="1.51"/><path d="M1950,858L1995,1063L2082,950Z" fill="#458f4f" stroke="#458f4f" stroke-width="1.51"/><path d="M1950,858L1879,1002L1995,1063Z" fill="#449550" stroke="#449550" stroke-width="1.51"/><path d="M1885,1258L1751,1285L1994,1305Z" fill="#17682f" stroke="#17682f" stroke-width="1.51"/><path d="M1957,1117L1885,1258L1994,1305Z" fill="#146a2f" stroke="#146a2f" stroke-width="1.51"/><path d="M1970,567L2009,607L2058,524Z" fill="#85ab89" stroke="#85ab89" stroke-width="1.51"/><path d="M1969,373L1970,567L2058,524Z" fill="#87a88b" stroke="#87a88b" stroke-width="1.51"/><path d="M1879,1172L1885,1258L1957,1117Z" fill="#1c7636" stroke="#1c7636" stroke-width="1.51"/><path d="M1945,152L1898,263L1961,285Z" fill="#789081" stroke="#789081" stroke-width="1.51"/><path d="M1803,386L1843,576L1969,373Z" fill="#91b393" stroke="#91b393" stroke-width="1.51"/><path d="M1889,748L1967,741L1970,567Z" fill="#7fb081" stroke="#7fb081" stroke-width="1.51"/><path d="M1843,576L1889,748L1970,567Z" fill="#88b78b" stroke="#88b78b" stroke-width="1.51"/><path d="M1969,373L1843,576L1970,567Z" fill="#8db291" stroke="#8db291" stroke-width="1.51"/><path d="M1885,-98L1964,76L1995,-93Z" fill="#5d5f63" stroke="#5d5f63" stroke-width="1.51"/><path d="M1970,567L1967,741L2009,607Z" fill="#80ad83" stroke="#80ad83" stroke-width="1.51"/><path d="M1885,-98L1829,77L1964,76Z" fill="#66706e" stroke="#66706e" stroke-width="1.51"/><path d="M1889,748L1950,858L1967,741Z" fill="#70ab74" stroke="#70ab74" stroke-width="1.51"/><path d="M1884,-133L1885,-98L1994,-133Z" fill="#555459" stroke="#555459" stroke-width="1.51"/><path d="M1994,-133L1885,-98L1995,-93Z" fill="#545158" stroke="#545158" stroke-width="1.51"/><path d="M1879,1002L1957,1117L1995,1063Z" fill="#318743" stroke="#318743" stroke-width="1.51"/><path d="M1843,576L1803,638L1889,748Z" fill="#8cbd8e" stroke="#8cbd8e" stroke-width="1.51"/><path d="M1851,212L1898,263L1945,152Z" fill="#799082" stroke="#799082" stroke-width="1.51"/><path d="M1817,901L1879,1002L1950,858Z" fill="#58a360" stroke="#58a360" stroke-width="1.51"/><path d="M1961,285L1898,263L1969,373Z" fill="#7f9985" stroke="#7f9985" stroke-width="1.51"/><path d="M1898,263L1803,386L1969,373Z" fill="#88a48c" stroke="#88a48c" stroke-width="1.51"/><path d="M1829,77L1945,152L1964,76Z" fill="#6c7d75" stroke="#6c7d75" stroke-width="1.51"/><path d="M1879,1002L1879,1172L1957,1117Z" fill="#2d8541" stroke="#2d8541" stroke-width="1.51"/><path d="M1889,748L1817,901L1950,858Z" fill="#6cae6f" stroke="#6cae6f" stroke-width="1.51"/><path d="M1829,77L1851,212L1945,152Z" fill="#75887d" stroke="#75887d" stroke-width="1.51"/><path d="M1187,-220L1252,-189L1579,-183Z" fill="#897888" stroke="#897888" stroke-width="1.51"/><path d="M1758,-43L1757,33L1829,77Z" fill="#737c78" stroke="#737c78" stroke-width="1.51"/><path d="M1803,386L1771,408L1843,576Z" fill="#99bb9b" stroke="#99bb9b" stroke-width="1.51"/><path d="M1731,341L1803,386L1851,212Z" fill="#90ab93" stroke="#90ab93" stroke-width="1.51"/><path d="M1817,901L1783,970L1879,1002Z" fill="#55a45e" stroke="#55a45e" stroke-width="1.51"/><path d="M1754,1185L1879,1172L1879,1002Z" fill="#318844" stroke="#318844" stroke-width="1.51"/><path d="M1783,970L1754,1185L1879,1002Z" fill="#429750" stroke="#429750" stroke-width="1.51"/><path d="M1758,-43L1829,77L1885,-98Z" fill="#6b6f6f" stroke="#6b6f6f" stroke-width="1.51"/><path d="M1743,827L1817,901L1889,748Z" fill="#75b778" stroke="#75b778" stroke-width="1.51"/><path d="M1851,212L1803,386L1898,263Z" fill="#87a18c" stroke="#87a18c" stroke-width="1.51"/><path d="M1773,204L1731,341L1851,212Z" fill="#8ba390" stroke="#8ba390" stroke-width="1.51"/><path d="M1829,77L1773,204L1851,212Z" fill="#7d9184" stroke="#7d9184" stroke-width="1.51"/><path d="M1879,1172L1754,1185L1885,1258Z" fill="#237a3a" stroke="#237a3a" stroke-width="1.51"/><path d="M1803,638L1743,827L1889,748Z" fill="#85bd86" stroke="#85bd86" stroke-width="1.51"/><path d="M1754,1185L1751,1285L1885,1258Z" fill="#26773a" stroke="#26773a" stroke-width="1.51"/><path d="M1884,-133L1758,-43L1885,-98Z" fill="#626065" stroke="#626065" stroke-width="1.51"/><path d="M1747,-227L1758,-43L1884,-133Z" fill="#5f5e61" stroke="#5f5e61" stroke-width="1.51"/><path d="M1476,1243L1393,1289L1751,1285Z" fill="#4b8b52" stroke="#4b8b52" stroke-width="1.51"/><path d="M1638,1035L1754,1185L1783,970Z" fill="#4a9f55" stroke="#4a9f55" stroke-width="1.51"/><path d="M1736,628L1743,827L1803,638Z" fill="#91c691" stroke="#91c691" stroke-width="1.51"/><path d="M1771,408L1688,548L1843,576Z" fill="#a0c5a0" stroke="#a0c5a0" stroke-width="1.51"/><path d="M1736,628L1803,638L1843,576Z" fill="#96c497" stroke="#96c497" stroke-width="1.51"/><path d="M1688,548L1736,628L1843,576Z" fill="#9ec99e" stroke="#9ec99e" stroke-width="1.51"/><path d="M1743,827L1750,895L1817,901Z" fill="#71b773" stroke="#71b773" stroke-width="1.51"/><path d="M1757,33L1773,204L1829,77Z" fill="#7a8b81" stroke="#7a8b81" stroke-width="1.51"/><path d="M1662,507L1688,548L1771,408Z" fill="#a6caa5" stroke="#a6caa5" stroke-width="1.51"/><path d="M1750,895L1783,970L1817,901Z" fill="#64ae69" stroke="#64ae69" stroke-width="1.51"/><path d="M1736,628L1600,743L1743,827Z" fill="#94cb92" stroke="#94cb92" stroke-width="1.51"/><path d="M1657,1222L1476,1243L1751,1285Z" fill="#3e8849" stroke="#3e8849" stroke-width="1.51"/><path d="M1757,33L1600,102L1773,204Z" fill="#849589" stroke="#849589" stroke-width="1.51"/><path d="M1600,102L1603,161L1773,204Z" fill="#8fa193" stroke="#8fa193" stroke-width="1.51"/><path d="M1731,341L1771,408L1803,386Z" fill="#9ab79a" stroke="#9ab79a" stroke-width="1.51"/><path d="M1579,-183L1575,-97L1747,-227Z" fill="#6c6a6b" stroke="#6c6a6b" stroke-width="1.51"/><path d="M1747,-227L1575,-97L1758,-43Z" fill="#6d6b6d" stroke="#6d6b6d" stroke-width="1.51"/><path d="M1750,895L1662,933L1783,970Z" fill="#67b36b" stroke="#67b36b" stroke-width="1.51"/><path d="M1662,933L1638,1035L1783,970Z" fill="#60b065" stroke="#60b065" stroke-width="1.51"/><path d="M1590,1084L1657,1222L1754,1185Z" fill="#3f944d" stroke="#3f944d" stroke-width="1.51"/><path d="M1638,1035L1590,1084L1754,1185Z" fill="#4c9f56" stroke="#4c9f56" stroke-width="1.51"/><path d="M1657,1222L1751,1285L1754,1185Z" fill="#318242" stroke="#318242" stroke-width="1.51"/><path d="M1608,335L1731,341L1773,204Z" fill="#98b29b" stroke="#98b29b" stroke-width="1.51"/><path d="M1603,161L1608,335L1773,204Z" fill="#97ae9b" stroke="#97ae9b" stroke-width="1.51"/><path d="M1731,341L1662,507L1771,408Z" fill="#a1c1a1" stroke="#a1c1a1" stroke-width="1.51"/><path d="M1589,436L1662,507L1731,341Z" fill="#a9c9a8" stroke="#a9c9a8" stroke-width="1.51"/><path d="M1575,-97L1600,102L1757,33Z" fill="#828885" stroke="#828885" stroke-width="1.51"/><path d="M1575,-97L1757,33L1758,-43Z" fill="#777979" stroke="#777979" stroke-width="1.51"/><path d="M1743,827L1662,933L1750,895Z" fill="#74bb76" stroke="#74bb76" stroke-width="1.51"/><path d="M1608,335L1589,436L1731,341Z" fill="#a9c4a8" stroke="#a9c4a8" stroke-width="1.51"/><path d="M1580,641L1600,743L1736,628Z" fill="#a4d4a2" stroke="#a4d4a2" stroke-width="1.51"/><path d="M1600,743L1662,933L1743,827Z" fill="#86c685" stroke="#86c685" stroke-width="1.51"/><path d="M1252,-189L1515,-155L1579,-183Z" fill="#837781" stroke="#837781" stroke-width="1.51"/><path d="M1688,548L1580,641L1736,628Z" fill="#a6d2a5" stroke="#a6d2a5" stroke-width="1.51"/><path d="M1600,743L1520,803L1662,933Z" fill="#93ce8f" stroke="#93ce8f" stroke-width="1.51"/><path d="M1520,803L1517,924L1662,933Z" fill="#8bca88" stroke="#8bca88" stroke-width="1.51"/><path d="M1662,507L1580,641L1688,548Z" fill="#aed6ac" stroke="#aed6ac" stroke-width="1.51"/><path d="M1486,-47L1475,7L1575,-97Z" fill="#8f878f" stroke="#8f878f" stroke-width="1.51"/><path d="M1575,-97L1475,7L1600,102Z" fill="#8e8e90" stroke="#8e8e90" stroke-width="1.51"/><path d="M1603,161L1530,171L1608,335Z" fill="#a2b3a5" stroke="#a2b3a5" stroke-width="1.51"/><path d="M1517,924L1499,963L1638,1035Z" fill="#78bf78" stroke="#78bf78" stroke-width="1.51"/><path d="M1590,1084L1466,1177L1657,1222Z" fill="#509d5a" stroke="#509d5a" stroke-width="1.51"/><path d="M1589,436L1487,554L1662,507Z" fill="#b9d8b6" stroke="#b9d8b6" stroke-width="1.51"/><path d="M1487,554L1580,641L1662,507Z" fill="#b8dcb6" stroke="#b8dcb6" stroke-width="1.51"/><path d="M1517,924L1638,1035L1662,933Z" fill="#71bc73" stroke="#71bc73" stroke-width="1.51"/><path d="M1466,1177L1476,1243L1657,1222Z" fill="#519759" stroke="#519759" stroke-width="1.51"/><path d="M1530,171L1480,334L1608,335Z" fill="#aebfaf" stroke="#aebfaf" stroke-width="1.51"/><path d="M1499,963L1590,1084L1638,1035Z" fill="#68b46c" stroke="#68b46c" stroke-width="1.51"/><path d="M1470,471L1487,554L1589,436Z" fill="#c2ddbe" stroke="#c2ddbe" stroke-width="1.51"/><path d="M1580,641L1507,659L1600,743Z" fill="#afdbaa" stroke="#afdbaa" stroke-width="1.51"/><path d="M1600,102L1530,171L1603,161Z" fill="#99a69d" stroke="#99a69d" stroke-width="1.51"/><path d="M1480,334L1589,436L1608,335Z" fill="#b5cbb2" stroke="#b5cbb2" stroke-width="1.51"/><path d="M1515,-155L1575,-97L1579,-183Z" fill="#7a7379" stroke="#7a7379" stroke-width="1.51"/><path d="M1507,659L1520,803L1600,743Z" fill="#a9daa5" stroke="#a9daa5" stroke-width="1.51"/><path d="M1475,7L1530,171L1600,102Z" fill="#99a19d" stroke="#99a19d" stroke-width="1.51"/><path d="M1487,554L1507,659L1580,641Z" fill="#bbe0b6" stroke="#bbe0b6" stroke-width="1.51"/><path d="M1480,334L1470,471L1589,436Z" fill="#bed5bc" stroke="#bed5bc" stroke-width="1.51"/><path d="M1499,963L1466,1177L1590,1084Z" fill="#69b16d" stroke="#69b16d" stroke-width="1.51"/><path d="M1475,7L1412,125L1530,171Z" fill="#a3a8a6" stroke="#a3a8a6" stroke-width="1.51"/><path d="M1515,-155L1486,-47L1575,-97Z" fill="#877c85" stroke="#877c85" stroke-width="1.51"/><path d="M334,-199L410,-180L910,-214Z" fill="#8d6096" stroke="#8d6096" stroke-width="1.51"/><path d="M1359,987L1466,1177L1499,963Z" fill="#7bbe7b" stroke="#7bbe7b" stroke-width="1.51"/><path d="M1252,-189L1329,-125L1515,-155Z" fill="#8e7d8d" stroke="#8e7d8d" stroke-width="1.51"/><path d="M1377,939L1517,924L1520,803Z" fill="#99d294" stroke="#99d294" stroke-width="1.51"/><path d="M1507,659L1354,743L1520,803Z" fill="#b6e1b0" stroke="#b6e1b0" stroke-width="1.51"/><path d="M1396,310L1480,334L1530,171Z" fill="#b7c5b8" stroke="#b7c5b8" stroke-width="1.51"/><path d="M1412,125L1396,310L1530,171Z" fill="#b3bcb4" stroke="#b3bcb4" stroke-width="1.51"/><path d="M1359,987L1353,1166L1466,1177Z" fill="#74b476" stroke="#74b476" stroke-width="1.51"/><path d="M1329,-125L1486,-47L1515,-155Z" fill="#90818e" stroke="#90818e" stroke-width="1.51"/><path d="M1354,743L1377,939L1520,803Z" fill="#addea6" stroke="#addea6" stroke-width="1.51"/><path d="M1377,939L1499,963L1517,924Z" fill="#8dcb8a" stroke="#8dcb8a" stroke-width="1.51"/><path d="M1387,41L1412,125L1475,7Z" fill="#a4a3a6" stroke="#a4a3a6" stroke-width="1.51"/><path d="M1487,554L1331,607L1507,659Z" fill="#c8e8c4" stroke="#c8e8c4" stroke-width="1.51"/><path d="M1374,471L1470,471L1480,334Z" fill="#caddc6" stroke="#caddc6" stroke-width="1.51"/><path d="M1331,607L1354,743L1507,659Z" fill="#c7e8c1" stroke="#c7e8c1" stroke-width="1.51"/><path d="M1396,310L1374,471L1480,334Z" fill="#c9d7c6" stroke="#c9d7c6" stroke-width="1.51"/><path d="M1470,471L1400,510L1487,554Z" fill="#cce5c8" stroke="#cce5c8" stroke-width="1.51"/><path d="M1377,939L1359,987L1499,963Z" fill="#8fcc8c" stroke="#8fcc8c" stroke-width="1.51"/><path d="M1329,-125L1324,-79L1486,-47Z" fill="#9b879a" stroke="#9b879a" stroke-width="1.51"/><path d="M1400,510L1331,607L1487,554Z" fill="#d1eacd" stroke="#d1eacd" stroke-width="1.51"/><path d="M1387,41L1475,7L1486,-47Z" fill="#9c969c" stroke="#9c969c" stroke-width="1.51"/><path d="M1324,-79L1387,41L1486,-47Z" fill="#9e929f" stroke="#9e929f" stroke-width="1.51"/><path d="M1466,1177L1393,1289L1476,1243Z" fill="#5c9b62" stroke="#5c9b62" stroke-width="1.51"/><path d="M1353,1166L1393,1289L1466,1177Z" fill="#64a168" stroke="#64a168" stroke-width="1.51"/><path d="M1374,471L1400,510L1470,471Z" fill="#cfe4cb" stroke="#cfe4cb" stroke-width="1.51"/><path d="M796,1217L436,1314L993,1255Z" fill="#7e9682" stroke="#7e9682" stroke-width="1.51"/><path d="M1246,755L1282,944L1354,743Z" fill="#bce4b5" stroke="#bce4b5" stroke-width="1.51"/><path d="M1354,743L1282,944L1377,939Z" fill="#acdca6" stroke="#acdca6" stroke-width="1.51"/><path d="M1324,-79L1282,-41L1387,41Z" fill="#a495a6" stroke="#a495a6" stroke-width="1.51"/><path d="M1249,430L1374,471L1396,310Z" fill="#d3ded0" stroke="#d3ded0" stroke-width="1.51"/><path d="M1241,146L1237,303L1396,310Z" fill="#c9caca" stroke="#c9caca" stroke-width="1.51"/><path d="M1387,41L1272,31L1412,125Z" fill="#aba7ae" stroke="#aba7ae" stroke-width="1.51"/><path d="M1272,31L1241,146L1412,125Z" fill="#b4b0b8" stroke="#b4b0b8" stroke-width="1.51"/><path d="M1241,146L1396,310L1412,125Z" fill="#bbbebe" stroke="#bbbebe" stroke-width="1.51"/><path d="M1222,1129L1353,1166L1359,987Z" fill="#80bb80" stroke="#80bb80" stroke-width="1.51"/><path d="M1353,1166L1238,1207L1393,1289Z" fill="#6ba36f" stroke="#6ba36f" stroke-width="1.51"/><path d="M1237,303L1249,430L1396,310Z" fill="#d3d9d1" stroke="#d3d9d1" stroke-width="1.51"/><path d="M1374,471L1331,607L1400,510Z" fill="#d6ebd2" stroke="#d6ebd2" stroke-width="1.51"/><path d="M1282,-41L1272,31L1387,41Z" fill="#aa9dac" stroke="#aa9dac" stroke-width="1.51"/><path d="M1238,1207L1164,1280L1393,1289Z" fill="#6e9f71" stroke="#6e9f71" stroke-width="1.51"/><path d="M1234,559L1331,607L1374,471Z" fill="#dcefd8" stroke="#dcefd8" stroke-width="1.51"/><path d="M1220,996L1222,1129L1359,987Z" fill="#8fc78e" stroke="#8fc78e" stroke-width="1.51"/><path d="M1331,607L1212,711L1354,743Z" fill="#d0ecc9" stroke="#d0ecc9" stroke-width="1.51"/><path d="M1212,711L1246,755L1354,743Z" fill="#cbebc5" stroke="#cbebc5" stroke-width="1.51"/><path d="M1249,430L1234,559L1374,471Z" fill="#ddead9" stroke="#ddead9" stroke-width="1.51"/><path d="M1282,944L1359,987L1377,939Z" fill="#98d195" stroke="#98d195" stroke-width="1.51"/><path d="M1282,944L1220,996L1359,987Z" fill="#99d096" stroke="#99d096" stroke-width="1.51"/><path d="M1222,1129L1238,1207L1353,1166Z" fill="#77b07a" stroke="#77b07a" stroke-width="1.51"/><path d="M606,1236L436,1314L796,1217Z" fill="#778c7d" stroke="#778c7d" stroke-width="1.51"/><path d="M1234,559L1212,711L1331,607Z" fill="#daefd4" stroke="#daefd4" stroke-width="1.51"/><path d="M1282,-41L1324,-79L1329,-125Z" fill="#a18aa1" stroke="#a18aa1" stroke-width="1.51"/><path d="M1252,-189L1282,-41L1329,-125Z" fill="#9d859c" stroke="#9d859c" stroke-width="1.51"/><path d="M1246,755L1134,921L1282,944Z" fill="#b9e2b3" stroke="#b9e2b3" stroke-width="1.51"/><path d="M1220,996L1162,1039L1222,1129Z" fill="#93c792" stroke="#93c792" stroke-width="1.51"/><path d="M1173,578L1212,711L1234,559Z" fill="#e0f2db" stroke="#e0f2db" stroke-width="1.51"/><path d="M1189,290L1237,303L1241,146Z" fill="#ceccd0" stroke="#ceccd0" stroke-width="1.51"/><path d="M1119,807L1134,921L1246,755Z" fill="#c6e8c0" stroke="#c6e8c0" stroke-width="1.51"/><path d="M1237,303L1149,400L1249,430Z" fill="#dfe1dc" stroke="#dfe1dc" stroke-width="1.51"/><path d="M1138,95L1241,146L1272,31Z" fill="#bbb2c0" stroke="#bbb2c0" stroke-width="1.51"/><path d="M1134,921L1220,996L1282,944Z" fill="#a6d7a3" stroke="#a6d7a3" stroke-width="1.51"/><path d="M1107,-74L1272,31L1282,-41Z" fill="#af99b1" stroke="#af99b1" stroke-width="1.51"/><path d="M1252,-189L1107,-74L1282,-41Z" fill="#a78aa7" stroke="#a78aa7" stroke-width="1.51"/><path d="M1187,-220L1107,-74L1252,-189Z" fill="#9e839e" stroke="#9e839e" stroke-width="1.51"/><path d="M1107,-74L1138,95L1272,31Z" fill="#b7a4ba" stroke="#b7a4ba" stroke-width="1.51"/><path d="M410,-180L575,-146L910,-214Z" fill="#966a9e" stroke="#966a9e" stroke-width="1.51"/><path d="M1189,290L1149,400L1237,303Z" fill="#dbdada" stroke="#dbdada" stroke-width="1.51"/><path d="M1123,144L1189,290L1241,146Z" fill="#cbc4ce" stroke="#cbc4ce" stroke-width="1.51"/><path d="M1173,578L1234,559L1249,430Z" fill="#e5f1e2" stroke="#e5f1e2" stroke-width="1.51"/><path d="M1149,400L1173,578L1249,430Z" fill="#e5ece2" stroke="#e5ece2" stroke-width="1.51"/><path d="M1212,711L1119,807L1246,755Z" fill="#d0ecc9" stroke="#d0ecc9" stroke-width="1.51"/><path d="M1162,1039L1151,1125L1222,1129Z" fill="#8dc08d" stroke="#8dc08d" stroke-width="1.51"/><path d="M1222,1129L1151,1125L1238,1207Z" fill="#80b583" stroke="#80b583" stroke-width="1.51"/><path d="M1138,95L1123,144L1241,146Z" fill="#c4b9c8" stroke="#c4b9c8" stroke-width="1.51"/><path d="M1151,1125L1164,1280L1238,1207Z" fill="#7cab7f" stroke="#7cab7f" stroke-width="1.51"/><path d="M1173,578L1094,700L1212,711Z" fill="#dff1da" stroke="#dff1da" stroke-width="1.51"/><path d="M1149,400L1051,472L1173,578Z" fill="#eaeee8" stroke="#eaeee8" stroke-width="1.51"/><path d="M1134,921L1162,1039L1220,996Z" fill="#a3d3a0" stroke="#a3d3a0" stroke-width="1.51"/><path d="M1094,700L1119,807L1212,711Z" fill="#d6eed0" stroke="#d6eed0" stroke-width="1.51"/><path d="M1151,1125L993,1255L1164,1280Z" fill="#7faa83" stroke="#7faa83" stroke-width="1.51"/><path d="M1023,-92L1107,-74L1187,-220Z" fill="#a888a9" stroke="#a888a9" stroke-width="1.51"/><path d="M972,-212L1023,-92L1187,-220Z" fill="#a182a3" stroke="#a182a3" stroke-width="1.51"/><path d="M1004,249L1149,400L1189,290Z" fill="#ded8df" stroke="#ded8df" stroke-width="1.51"/><path d="M1123,144L1004,249L1189,290Z" fill="#d4ccd8" stroke="#d4ccd8" stroke-width="1.51"/><path d="M1134,921L1063,954L1162,1039Z" fill="#a9d6a7" stroke="#a9d6a7" stroke-width="1.51"/><path d="M1051,472L1036,574L1173,578Z" fill="#eff5ed" stroke="#eff5ed" stroke-width="1.51"/><path d="M1010,190L1004,249L1123,144Z" fill="#d3c6d9" stroke="#d3c6d9" stroke-width="1.51"/><path d="M1107,-74L1042,104L1138,95Z" fill="#beaac3" stroke="#beaac3" stroke-width="1.51"/><path d="M1036,574L1094,700L1173,578Z" fill="#e7f4e3" stroke="#e7f4e3" stroke-width="1.51"/><path d="M963,1156L993,1255L1151,1125Z" fill="#88b38c" stroke="#88b38c" stroke-width="1.51"/><path d="M1039,974L1151,1125L1162,1039Z" fill="#9aca99" stroke="#9aca99" stroke-width="1.51"/><path d="M1063,954L1039,974L1162,1039Z" fill="#a7d3a5" stroke="#a7d3a5" stroke-width="1.51"/><path d="M1004,249L1051,472L1149,400Z" fill="#e8e3e7" stroke="#e8e3e7" stroke-width="1.51"/><path d="M1039,974L963,1156L1151,1125Z" fill="#97c398" stroke="#97c398" stroke-width="1.51"/><path d="M1119,807L1063,954L1134,921Z" fill="#bce1b8" stroke="#bce1b8" stroke-width="1.51"/><path d="M898,1219L796,1217L993,1255Z" fill="#86a68a" stroke="#86a68a" stroke-width="1.51"/><path d="M932,1076L963,1156L1039,974Z" fill="#9fc8a0" stroke="#9fc8a0" stroke-width="1.51"/><path d="M1023,-92L1042,104L1107,-74Z" fill="#b99cbd" stroke="#b99cbd" stroke-width="1.51"/><path d="M1042,104L1123,144L1138,95Z" fill="#c5b8cc" stroke="#c5b8cc" stroke-width="1.51"/><path d="M954,846L1063,954L1119,807Z" fill="#c6e6c1" stroke="#c6e6c1" stroke-width="1.51"/><path d="M1004,249L898,328L1051,472Z" fill="#eae0eb" stroke="#eae0eb" stroke-width="1.51"/><path d="M1094,700L1016,704L1119,807Z" fill="#dbf0d5" stroke="#dbf0d5" stroke-width="1.51"/><path d="M1016,704L973,752L1119,807Z" fill="#daefd6" stroke="#daefd6" stroke-width="1.51"/><path d="M1042,104L1010,190L1123,144Z" fill="#ccbed2" stroke="#ccbed2" stroke-width="1.51"/><path d="M1036,574L1016,704L1094,700Z" fill="#e6f3e2" stroke="#e6f3e2" stroke-width="1.51"/><path d="M973,752L954,846L1119,807Z" fill="#d4eccf" stroke="#d4eccf" stroke-width="1.51"/><path d="M1023,-92L909,30L1042,104Z" fill="#c0a5c7" stroke="#c0a5c7" stroke-width="1.51"/><path d="M898,328L881,471L1051,472Z" fill="#f1e9f1" stroke="#f1e9f1" stroke-width="1.51"/><path d="M926,535L1036,574L1051,472Z" fill="#f4f5f3" stroke="#f4f5f3" stroke-width="1.51"/><path d="M954,846L1039,974L1063,954Z" fill="#badeb7" stroke="#badeb7" stroke-width="1.51"/><path d="M860,610L1016,704L1036,574Z" fill="#eef5eb" stroke="#eef5eb" stroke-width="1.51"/><path d="M926,535L860,610L1036,574Z" fill="#f4f5f3" stroke="#f4f5f3" stroke-width="1.51"/><path d="M881,471L926,535L1051,472Z" fill="#f5f1f4" stroke="#f5f1f4" stroke-width="1.51"/><path d="M915,180L1010,190L1042,104Z" fill="#d2c1d9" stroke="#d2c1d9" stroke-width="1.51"/><path d="M909,30L915,180L1042,104Z" fill="#cdb7d4" stroke="#cdb7d4" stroke-width="1.51"/><path d="M954,846L830,967L1039,974Z" fill="#bdddbb" stroke="#bdddbb" stroke-width="1.51"/><path d="M830,967L932,1076L1039,974Z" fill="#abd2aa" stroke="#abd2aa" stroke-width="1.51"/><path d="M575,-146L702,-131L910,-214Z" fill="#a174a6" stroke="#a174a6" stroke-width="1.51"/><path d="M910,-214L855,-89L972,-212Z" fill="#a680a9" stroke="#a680a9" stroke-width="1.51"/><path d="M972,-212L855,-89L1023,-92Z" fill="#ae89b3" stroke="#ae89b3" stroke-width="1.51"/><path d="M855,-89L909,30L1023,-92Z" fill="#bb94c0" stroke="#bb94c0" stroke-width="1.51"/><path d="M860,610L973,752L1016,704Z" fill="#e8f3e5" stroke="#e8f3e5" stroke-width="1.51"/><path d="M963,1156L898,1219L993,1255Z" fill="#89ae8d" stroke="#89ae8d" stroke-width="1.51"/><path d="M915,180L1004,249L1010,190Z" fill="#d9cadf" stroke="#d9cadf" stroke-width="1.51"/><path d="M913,818L954,846L973,752Z" fill="#d6ebd2" stroke="#d6ebd2" stroke-width="1.51"/><path d="M915,180L898,328L1004,249Z" fill="#dfd0e4" stroke="#dfd0e4" stroke-width="1.51"/><path d="M860,610L819,703L973,752Z" fill="#e6eee4" stroke="#e6eee4" stroke-width="1.51"/><path d="M702,-131L751,-133L910,-214Z" fill="#a379a8" stroke="#a379a8" stroke-width="1.51"/><path d="M913,818L830,967L954,846Z" fill="#c8e1c4" stroke="#c8e1c4" stroke-width="1.51"/><path d="M819,703L913,818L973,752Z" fill="#dcebd9" stroke="#dcebd9" stroke-width="1.51"/><path d="M932,1076L866,1189L963,1156Z" fill="#92b895" stroke="#92b895" stroke-width="1.51"/><path d="M866,1189L898,1219L963,1156Z" fill="#8baf8f" stroke="#8baf8f" stroke-width="1.51"/><path d="M909,30L748,92L915,180Z" fill="#c9b0d1" stroke="#c9b0d1" stroke-width="1.51"/><path d="M748,92L778,198L915,180Z" fill="#ceb6d6" stroke="#ceb6d6" stroke-width="1.51"/><path d="M778,198L898,328L915,180Z" fill="#dbc8e0" stroke="#dbc8e0" stroke-width="1.51"/><path d="M751,1104L866,1189L932,1076Z" fill="#93b796" stroke="#93b796" stroke-width="1.51"/><path d="M830,967L751,1104L932,1076Z" fill="#a1c3a1" stroke="#a1c3a1" stroke-width="1.51"/><path d="M819,703L778,753L913,818Z" fill="#dbe7d7" stroke="#dbe7d7" stroke-width="1.51"/><path d="M730,888L830,967L913,818Z" fill="#c2dabf" stroke="#c2dabf" stroke-width="1.51"/><path d="M881,471L860,610L926,535Z" fill="#f5f2f5" stroke="#f5f2f5" stroke-width="1.51"/><path d="M778,198L746,265L898,328Z" fill="#dcc8e1" stroke="#dcc8e1" stroke-width="1.51"/><path d="M731,432L881,471L898,328Z" fill="#eddfed" stroke="#eddfed" stroke-width="1.51"/><path d="M855,-89L784,-60L909,30Z" fill="#b991be" stroke="#b991be" stroke-width="1.51"/><path d="M751,-133L855,-89L910,-214Z" fill="#a87eac" stroke="#a87eac" stroke-width="1.51"/><path d="M778,753L730,888L913,818Z" fill="#d0e0cb" stroke="#d0e0cb" stroke-width="1.51"/><path d="M784,-60L748,92L909,30Z" fill="#be9dc6" stroke="#be9dc6" stroke-width="1.51"/><path d="M739,504L860,610L881,471Z" fill="#f2ebf3" stroke="#f2ebf3" stroke-width="1.51"/><path d="M746,265L704,325L898,328Z" fill="#e0cce3" stroke="#e0cce3" stroke-width="1.51"/><path d="M704,325L731,432L898,328Z" fill="#e7d4e8" stroke="#e7d4e8" stroke-width="1.51"/><path d="M866,1189L796,1217L898,1219Z" fill="#87a78b" stroke="#87a78b" stroke-width="1.51"/><path d="M731,432L739,504L881,471Z" fill="#eee2ee" stroke="#eee2ee" stroke-width="1.51"/><path d="M751,1104L796,1217L866,1189Z" fill="#8aab8e" stroke="#8aab8e" stroke-width="1.51"/><path d="M751,-133L784,-60L855,-89Z" fill="#b083b5" stroke="#b083b5" stroke-width="1.51"/><path d="M739,504L819,703L860,610Z" fill="#eceaeb" stroke="#eceaeb" stroke-width="1.51"/><path d="M697,8L748,92L784,-60Z" fill="#bb96c2" stroke="#bb96c2" stroke-width="1.51"/><path d="M739,504L631,675L819,703Z" fill="#e7e4e6" stroke="#e7e4e6" stroke-width="1.51"/><path d="M684,1076L751,1104L830,967Z" fill="#9ebe9e" stroke="#9ebe9e" stroke-width="1.51"/><path d="M730,888L684,1076L830,967Z" fill="#adc9ab" stroke="#adc9ab" stroke-width="1.51"/><path d="M631,675L778,753L819,703Z" fill="#dfe3dc" stroke="#dfe3dc" stroke-width="1.51"/><path d="M668,853L730,888L778,753Z" fill="#cbdac8" stroke="#cbdac8" stroke-width="1.51"/><path d="M649,809L668,853L778,753Z" fill="#ced9cb" stroke="#ced9cb" stroke-width="1.51"/><path d="M751,1104L606,1236L796,1217Z" fill="#86a28a" stroke="#86a28a" stroke-width="1.51"/><path d="M622,514L631,675L739,504Z" fill="#e8dfea" stroke="#e8dfea" stroke-width="1.51"/><path d="M748,92L609,164L778,198Z" fill="#caaed2" stroke="#caaed2" stroke-width="1.51"/><path d="M702,-131L668,-8L784,-60Z" fill="#b183b7" stroke="#b183b7" stroke-width="1.51"/><path d="M668,-8L697,8L784,-60Z" fill="#b68cbd" stroke="#b68cbd" stroke-width="1.51"/><path d="M751,-133L702,-131L784,-60Z" fill="#ac7db1" stroke="#ac7db1" stroke-width="1.51"/><path d="M684,1076L606,1236L751,1104Z" fill="#8ba88e" stroke="#8ba88e" stroke-width="1.51"/><path d="M609,164L746,265L778,198Z" fill="#d1b8d9" stroke="#d1b8d9" stroke-width="1.51"/><path d="M631,675L649,809L778,753Z" fill="#d6dbd4" stroke="#d6dbd4" stroke-width="1.51"/><path d="M612,1093L606,1236L684,1076Z" fill="#88a48d" stroke="#88a48d" stroke-width="1.51"/><path d="M668,853L684,1076L730,888Z" fill="#b2cab0" stroke="#b2cab0" stroke-width="1.51"/><path d="M609,164L704,325L746,265Z" fill="#d5bcdb" stroke="#d5bcdb" stroke-width="1.51"/><path d="M697,8L609,164L748,92Z" fill="#bfa0c9" stroke="#bfa0c9" stroke-width="1.51"/><path d="M704,325L622,421L731,432Z" fill="#e5d1e6" stroke="#e5d1e6" stroke-width="1.51"/><path d="M668,853L612,1093L684,1076Z" fill="#a0bca0" stroke="#a0bca0" stroke-width="1.51"/><path d="M622,421L622,514L731,432Z" fill="#e6d6e9" stroke="#e6d6e9" stroke-width="1.51"/><path d="M731,432L622,514L739,504Z" fill="#eadcec" stroke="#eadcec" stroke-width="1.51"/><path d="M496,1025L612,1093L668,853Z" fill="#a0b9a1" stroke="#a0b9a1" stroke-width="1.51"/><path d="M631,675L591,724L649,809Z" fill="#d3d6d2" stroke="#d3d6d2" stroke-width="1.51"/><path d="M668,-8L609,164L697,8Z" fill="#b998c4" stroke="#b998c4" stroke-width="1.51"/><path d="M567,135L609,164L668,-8Z" fill="#bb9bc7" stroke="#bb9bc7" stroke-width="1.51"/><path d="M511,848L496,1025L668,853Z" fill="#b0c1b0" stroke="#b0c1b0" stroke-width="1.51"/><path d="M595,-57L668,-8L702,-131Z" fill="#ac7db4" stroke="#ac7db4" stroke-width="1.51"/><path d="M575,-146L595,-57L702,-131Z" fill="#a372ab" stroke="#a372ab" stroke-width="1.51"/><path d="M487,325L622,421L704,325Z" fill="#dbc4e0" stroke="#dbc4e0" stroke-width="1.51"/><path d="M609,164L487,325L704,325Z" fill="#d0b7d9" stroke="#d0b7d9" stroke-width="1.51"/><path d="M554,1222L606,1236L612,1093Z" fill="#7e9784" stroke="#7e9784" stroke-width="1.51"/><path d="M622,514L502,583L631,675Z" fill="#e0d7e3" stroke="#e0d7e3" stroke-width="1.51"/><path d="M595,-57L567,135L668,-8Z" fill="#b38cbd" stroke="#b38cbd" stroke-width="1.51"/><path d="M649,809L511,848L668,853Z" fill="#c3cec1" stroke="#c3cec1" stroke-width="1.51"/><path d="M493,101L567,135L595,-57Z" fill="#b18ebf" stroke="#b18ebf" stroke-width="1.51"/><path d="M554,1222L436,1314L606,1236Z" fill="#728479" stroke="#728479" stroke-width="1.51"/><path d="M487,325L506,419L622,421Z" fill="#d9c2de" stroke="#d9c2de" stroke-width="1.51"/><path d="M591,724L511,848L649,809Z" fill="#c7cfc7" stroke="#c7cfc7" stroke-width="1.51"/><path d="M553,716L511,848L591,724Z" fill="#c9cdca" stroke="#c9cdca" stroke-width="1.51"/><path d="M567,135L487,325L609,164Z" fill="#c5a8d0" stroke="#c5a8d0" stroke-width="1.51"/><path d="M505,1139L554,1222L612,1093Z" fill="#809a86" stroke="#809a86" stroke-width="1.51"/><path d="M506,419L622,514L622,421Z" fill="#e0cee4" stroke="#e0cee4" stroke-width="1.51"/><path d="M553,716L591,724L631,675Z" fill="#d5d5d6" stroke="#d5d5d6" stroke-width="1.51"/><path d="M502,583L553,716L631,675Z" fill="#d8d3da" stroke="#d8d3da" stroke-width="1.51"/><path d="M420,214L487,325L567,135Z" fill="#c2a5cf" stroke="#c2a5cf" stroke-width="1.51"/><path d="M506,419L502,583L622,514Z" fill="#e0d0e5" stroke="#e0d0e5" stroke-width="1.51"/><path d="M445,-54L493,101L595,-57Z" fill="#a87db5" stroke="#a87db5" stroke-width="1.51"/><path d="M496,1025L505,1139L612,1093Z" fill="#8ba390" stroke="#8ba390" stroke-width="1.51"/><path d="M423,938L496,1025L511,848Z" fill="#a3b4a6" stroke="#a3b4a6" stroke-width="1.51"/><path d="M502,583L470,693L553,716Z" fill="#d3cdd6" stroke="#d3cdd6" stroke-width="1.51"/><path d="M575,-146L445,-54L595,-57Z" fill="#a16eab" stroke="#a16eab" stroke-width="1.51"/><path d="M445,-54L412,36L493,101Z" fill="#a67db5" stroke="#a67db5" stroke-width="1.51"/><path d="M451,568L502,583L506,419Z" fill="#dccce3" stroke="#dccce3" stroke-width="1.51"/><path d="M493,101L420,214L567,135Z" fill="#b899c6" stroke="#b899c6" stroke-width="1.51"/><path d="M410,-180L445,-54L575,-146Z" fill="#9462a0" stroke="#9462a0" stroke-width="1.51"/><path d="M470,693L511,848L553,716Z" fill="#c9cac9" stroke="#c9cac9" stroke-width="1.51"/><path d="M505,1139L376,1196L554,1222Z" fill="#768c7f" stroke="#768c7f" stroke-width="1.51"/><path d="M376,1196L436,1314L554,1222Z" fill="#6e8076" stroke="#6e8076" stroke-width="1.51"/><path d="M423,938L428,1016L496,1025Z" fill="#95aa99" stroke="#95aa99" stroke-width="1.51"/><path d="M451,568L470,693L502,583Z" fill="#d6ccda" stroke="#d6ccda" stroke-width="1.51"/><path d="M496,1025L428,1016L505,1139Z" fill="#8ba290" stroke="#8ba290" stroke-width="1.51"/><path d="M487,325L396,344L506,419Z" fill="#d0b7d8" stroke="#d0b7d8" stroke-width="1.51"/><path d="M396,344L399,430L506,419Z" fill="#d1b9d8" stroke="#d1b9d8" stroke-width="1.51"/><path d="M399,430L451,568L506,419Z" fill="#d7c3dd" stroke="#d7c3dd" stroke-width="1.51"/><path d="M470,693L366,800L511,848Z" fill="#c0c2c1" stroke="#c0c2c1" stroke-width="1.51"/><path d="M366,800L423,938L511,848Z" fill="#b1bab3" stroke="#b1bab3" stroke-width="1.51"/><path d="M428,1016L376,1196L505,1139Z" fill="#7e9485" stroke="#7e9485" stroke-width="1.51"/><path d="M420,214L396,344L487,325Z" fill="#c6aad1" stroke="#c6aad1" stroke-width="1.51"/><path d="M412,36L420,214L493,101Z" fill="#b08dbf" stroke="#b08dbf" stroke-width="1.51"/><path d="M412,36L323,203L420,214Z" fill="#b08dbf" stroke="#b08dbf" stroke-width="1.51"/><path d="M275,1121L376,1196L428,1016Z" fill="#798d81" stroke="#798d81" stroke-width="1.51"/><path d="M451,568L282,612L470,693Z" fill="#cec2d3" stroke="#cec2d3" stroke-width="1.51"/><path d="M282,612L366,800L470,693Z" fill="#c5bec9" stroke="#c5bec9" stroke-width="1.51"/><path d="M334,-41L412,36L445,-54Z" fill="#9d6daa" stroke="#9d6daa" stroke-width="1.51"/><path d="M410,-180L334,-41L445,-54Z" fill="#945ea1" stroke="#945ea1" stroke-width="1.51"/><path d="M399,430L292,497L451,568Z" fill="#d2bed9" stroke="#d2bed9" stroke-width="1.51"/><path d="M292,497L282,612L451,568Z" fill="#cfbdd6" stroke="#cfbdd6" stroke-width="1.51"/><path d="M-20,1208L-151,1222L254,1303Z" fill="#544f59" stroke="#544f59" stroke-width="1.51"/><path d="M334,-199L334,-41L410,-180Z" fill="#885495" stroke="#885495" stroke-width="1.51"/><path d="M323,203L396,344L420,214Z" fill="#bc9ec9" stroke="#bc9ec9" stroke-width="1.51"/><path d="M366,800L263,882L423,938Z" fill="#a8afaa" stroke="#a8afaa" stroke-width="1.51"/><path d="M376,1196L254,1303L436,1314Z" fill="#64706d" stroke="#64706d" stroke-width="1.51"/><path d="M292,7L323,203L412,36Z" fill="#a37cb3" stroke="#a37cb3" stroke-width="1.51"/><path d="M423,938L262,964L428,1016Z" fill="#93a498" stroke="#93a498" stroke-width="1.51"/><path d="M262,964L275,1121L428,1016Z" fill="#849689" stroke="#849689" stroke-width="1.51"/><path d="M263,882L262,964L423,938Z" fill="#99a49d" stroke="#99a49d" stroke-width="1.51"/><path d="M323,203L309,363L396,344Z" fill="#bfa0ca" stroke="#bfa0ca" stroke-width="1.51"/><path d="M287,816L263,882L366,800Z" fill="#acaeaf" stroke="#acaeaf" stroke-width="1.51"/><path d="M396,344L309,363L399,430Z" fill="#caafd2" stroke="#caafd2" stroke-width="1.51"/><path d="M334,-41L292,7L412,36Z" fill="#9a6caa" stroke="#9a6caa" stroke-width="1.51"/><path d="M282,612L287,816L366,800Z" fill="#bab5be" stroke="#bab5be" stroke-width="1.51"/><path d="M92,1221L-20,1208L254,1303Z" fill="#58595e" stroke="#58595e" stroke-width="1.51"/><path d="M253,325L309,363L323,203Z" fill="#ba9bc6" stroke="#ba9bc6" stroke-width="1.51"/><path d="M309,363L292,497L399,430Z" fill="#cab0d2" stroke="#cab0d2" stroke-width="1.51"/><path d="M282,612L186,728L287,816Z" fill="#b8afbd" stroke="#b8afbd" stroke-width="1.51"/><path d="M275,1121L191,1208L376,1196Z" fill="#697a73" stroke="#697a73" stroke-width="1.51"/><path d="M191,1208L254,1303L376,1196Z" fill="#626e6c" stroke="#626e6c" stroke-width="1.51"/><path d="M292,7L160,168L323,203Z" fill="#a17bb2" stroke="#a17bb2" stroke-width="1.51"/><path d="M182,-125L334,-41L334,-199Z" fill="#854e93" stroke="#854e93" stroke-width="1.51"/><path d="M29,-229L182,-125L334,-199Z" fill="#72397f" stroke="#72397f" stroke-width="1.51"/><path d="M165,17L160,168L292,7Z" fill="#966aa7" stroke="#966aa7" stroke-width="1.51"/><path d="M226,412L292,497L309,363Z" fill="#c5aace" stroke="#c5aace" stroke-width="1.51"/><path d="M216,308L253,325L323,203Z" fill="#b594c3" stroke="#b594c3" stroke-width="1.51"/><path d="M182,-125L292,7L334,-41Z" fill="#8e589d" stroke="#8e589d" stroke-width="1.51"/><path d="M218,588L282,612L292,497Z" fill="#c8b4d0" stroke="#c8b4d0" stroke-width="1.51"/><path d="M160,168L216,308L323,203Z" fill="#ad89bc" stroke="#ad89bc" stroke-width="1.51"/><path d="M182,-125L160,-101L292,7Z" fill="#874d96" stroke="#874d96" stroke-width="1.51"/><path d="M160,-101L165,17L292,7Z" fill="#8c569b" stroke="#8c569b" stroke-width="1.51"/><path d="M253,325L226,412L309,363Z" fill="#c0a1c9" stroke="#c0a1c9" stroke-width="1.51"/><path d="M262,964L136,982L275,1121Z" fill="#7f8d84" stroke="#7f8d84" stroke-width="1.51"/><path d="M218,588L186,728L282,612Z" fill="#beaec4" stroke="#beaec4" stroke-width="1.51"/><path d="M226,412L218,588L292,497Z" fill="#c7aecf" stroke="#c7aecf" stroke-width="1.51"/><path d="M200,933L262,964L263,882Z" fill="#949c98" stroke="#949c98" stroke-width="1.51"/><path d="M186,728L263,882L287,816Z" fill="#aaa9ae" stroke="#aaa9ae" stroke-width="1.51"/><path d="M111,450L218,588L226,412Z" fill="#c1a4ca" stroke="#c1a4ca" stroke-width="1.51"/><path d="M186,728L113,887L263,882Z" fill="#a4a0a5" stroke="#a4a0a5" stroke-width="1.51"/><path d="M136,982L136,1169L275,1121Z" fill="#717c77" stroke="#717c77" stroke-width="1.51"/><path d="M136,1169L191,1208L275,1121Z" fill="#66726e" stroke="#66726e" stroke-width="1.51"/><path d="M140,708L186,728L218,588Z" fill="#b9a7bd" stroke="#b9a7bd" stroke-width="1.51"/><path d="M216,308L226,412L253,325Z" fill="#bb9bc6" stroke="#bb9bc6" stroke-width="1.51"/><path d="M200,933L136,982L262,964Z" fill="#8a928e" stroke="#8a928e" stroke-width="1.51"/><path d="M113,887L200,933L263,882Z" fill="#969999" stroke="#969999" stroke-width="1.51"/><path d="M191,1208L92,1221L254,1303Z" fill="#5b6264" stroke="#5b6264" stroke-width="1.51"/><path d="M136,982L55,1023L136,1169Z" fill="#727776" stroke="#727776" stroke-width="1.51"/><path d="M160,168L91,212L216,308Z" fill="#a87eb6" stroke="#a87eb6" stroke-width="1.51"/><path d="M91,212L76,248L216,308Z" fill="#a97eb5" stroke="#a97eb5" stroke-width="1.51"/><path d="M216,308L111,450L226,412Z" fill="#bc99c5" stroke="#bc99c5" stroke-width="1.51"/><path d="M140,708L113,887L186,728Z" fill="#aa9eab" stroke="#aa9eab" stroke-width="1.51"/><path d="M76,248L111,450L216,308Z" fill="#b38bbc" stroke="#b38bbc" stroke-width="1.51"/><path d="M111,450L15,505L218,588Z" fill="#be9dc5" stroke="#be9dc5" stroke-width="1.51"/><path d="M15,505L79,701L218,588Z" fill="#ba9dbf" stroke="#ba9dbf" stroke-width="1.51"/><path d="M79,701L140,708L218,588Z" fill="#b7a2bb" stroke="#b7a2bb" stroke-width="1.51"/><path d="M45,758L113,887L140,708Z" fill="#a596a6" stroke="#a596a6" stroke-width="1.51"/><path d="M50,21L160,168L165,17Z" fill="#9160a1" stroke="#9160a1" stroke-width="1.51"/><path d="M113,887L136,982L200,933Z" fill="#8d8f8f" stroke="#8d8f8f" stroke-width="1.51"/><path d="M55,1023L61,1157L136,1169Z" fill="#686b6c" stroke="#686b6c" stroke-width="1.51"/><path d="M29,-229L160,-101L182,-125Z" fill="#733580" stroke="#733580" stroke-width="1.51"/><path d="M136,1169L92,1221L191,1208Z" fill="#5f6465" stroke="#5f6465" stroke-width="1.51"/><path d="M160,-101L30,-49L165,17Z" fill="#844692" stroke="#844692" stroke-width="1.51"/><path d="M30,-49L50,21L165,17Z" fill="#864993" stroke="#864993" stroke-width="1.51"/><path d="M50,21L-15,152L91,212Z" fill="#925ea1" stroke="#925ea1" stroke-width="1.51"/><path d="M76,248L-33,378L111,450Z" fill="#b082b7" stroke="#b082b7" stroke-width="1.51"/><path d="M29,-229L30,-49L160,-101Z" fill="#743181" stroke="#743181" stroke-width="1.51"/><path d="M50,21L91,212L160,168Z" fill="#9767a6" stroke="#9767a6" stroke-width="1.51"/><path d="M79,701L45,758L140,708Z" fill="#ad98af" stroke="#ad98af" stroke-width="1.51"/><path d="M113,887L55,1023L136,982Z" fill="#848585" stroke="#848585" stroke-width="1.51"/><path d="M61,1157L92,1221L136,1169Z" fill="#5f6265" stroke="#5f6265" stroke-width="1.51"/><path d="M29,-229L-50,-87L30,-49Z" fill="#6f267c" stroke="#6f267c" stroke-width="1.51"/><path d="M-20,269L-33,378L76,248Z" fill="#a674ae" stroke="#a674ae" stroke-width="1.51"/><path d="M15,505L-97,590L79,701Z" fill="#b38fb6" stroke="#b38fb6" stroke-width="1.51"/><path d="M-33,378L15,505L111,450Z" fill="#b58aba" stroke="#b58aba" stroke-width="1.51"/><path d="M45,758L-8,761L113,887Z" fill="#a08f9f" stroke="#a08f9f" stroke-width="1.51"/><path d="M-8,761L-107,857L113,887Z" fill="#988696" stroke="#988696" stroke-width="1.51"/><path d="M-87,976L55,1023L113,887Z" fill="#807b80" stroke="#807b80" stroke-width="1.51"/><path d="M-107,857L-87,976L113,887Z" fill="#877b85" stroke="#877b85" stroke-width="1.51"/><path d="M-97,590L-109,657L79,701Z" fill="#aa8aab" stroke="#aa8aab" stroke-width="1.51"/><path d="M61,1157L-20,1208L92,1221Z" fill="#5a595f" stroke="#5a595f" stroke-width="1.51"/><path d="M-15,152L76,248L91,212Z" fill="#9d6caa" stroke="#9d6caa" stroke-width="1.51"/><path d="M-40,-225L-50,-87L29,-229Z" fill="#621c6f" stroke="#621c6f" stroke-width="1.51"/><path d="M-38,36L-15,152L50,21Z" fill="#884e96" stroke="#884e96" stroke-width="1.51"/><path d="M55,1023L-37,1187L61,1157Z" fill="#636367" stroke="#636367" stroke-width="1.51"/><path d="M-15,152L-20,269L76,248Z" fill="#9d6aa9" stroke="#9d6aa9" stroke-width="1.51"/><path d="M-109,657L-8,761L79,701Z" fill="#a88ca8" stroke="#a88ca8" stroke-width="1.51"/><path d="M-8,761L45,758L79,701Z" fill="#a890a7" stroke="#a890a7" stroke-width="1.51"/><path d="M-139,1093L-37,1187L55,1023Z" fill="#615f63" stroke="#615f63" stroke-width="1.51"/><path d="M-87,976L-139,1093L55,1023Z" fill="#6b696b" stroke="#6b696b" stroke-width="1.51"/><path d="M-37,1187L-20,1208L61,1157Z" fill="#59555d" stroke="#59555d" stroke-width="1.51"/><path d="M30,-49L-38,36L50,21Z" fill="#81418f" stroke="#81418f" stroke-width="1.51"/><path d="M-50,-87L-38,36L30,-49Z" fill="#7a3587" stroke="#7a3587" stroke-width="1.51"/><path d="M-109,657L-126,715L-8,761Z" fill="#9f859f" stroke="#9f859f" stroke-width="1.51"/><path d="M-33,378L-140,391L15,505Z" fill="#ab7eb0" stroke="#ab7eb0" stroke-width="1.51"/><path d="M-140,391L-97,590L15,505Z" fill="#ac84b1" stroke="#ac84b1" stroke-width="1.51"/><path d="M-140,391L-33,378L-20,269Z" fill="#a373a9" stroke="#a373a9" stroke-width="1.51"/><path d="M-38,36L-161,85L-15,152Z" fill="#824b90" stroke="#824b90" stroke-width="1.51"/><path d="M-201,292L-20,269L-15,152Z" fill="#94639f" stroke="#94639f" stroke-width="1.51"/><path d="M-161,85L-201,292L-15,152Z" fill="#875593" stroke="#875593" stroke-width="1.51"/><path d="M-126,715L-107,857L-8,761Z" fill="#968195" stroke="#968195" stroke-width="1.51"/><path d="M-201,292L-140,391L-20,269Z" fill="#986ba0" stroke="#986ba0" stroke-width="1.51"/><path d="M-37,1187L-151,1222L-20,1208Z" fill="#4f4c53" stroke="#4f4c53" stroke-width="1.51"/><path d="M-211,-212L-50,-87L-40,-225Z" fill="#5a1666" stroke="#5a1666" stroke-width="1.51"/><path d="M-140,391L-234,513L-97,590Z" fill="#a27da6" stroke="#a27da6" stroke-width="1.51"/><path d="M-50,-87L-229,-26L-38,36Z" fill="#71307e" stroke="#71307e" stroke-width="1.51"/><path d="M-229,-26L-161,85L-38,36Z" fill="#723a80" stroke="#723a80" stroke-width="1.51"/><path d="M-139,1093L-151,1222L-37,1187Z" fill="#4f4f52" stroke="#4f4f52" stroke-width="1.51"/><path d="M-237,132L-201,292L-161,85Z" fill="#7e4e89" stroke="#7e4e89" stroke-width="1.51"/><path d="M-126,715L-170,829L-107,857Z" fill="#8c7b8b" stroke="#8c7b8b" stroke-width="1.51"/><path d="M-211,-212L-229,-26L-50,-87Z" fill="#5f196b" stroke="#5f196b" stroke-width="1.51"/><path d="M-107,857L-191,907L-87,976Z" fill="#7a7278" stroke="#7a7278" stroke-width="1.51"/><path d="M-191,907L-167,990L-87,976Z" fill="#6e6a6d" stroke="#6e6a6d" stroke-width="1.51"/><path d="M-167,990L-139,1093L-87,976Z" fill="#646464" stroke="#646464" stroke-width="1.51"/><path d="M-234,513L-109,657L-97,590Z" fill="#a281a4" stroke="#a281a4" stroke-width="1.51"/><path d="M-170,829L-191,907L-107,857Z" fill="#80757e" stroke="#80757e" stroke-width="1.51"/><path d="M-234,513L-126,715L-109,657Z" fill="#9d809f" stroke="#9d809f" stroke-width="1.51"/><path d="M-234,513L-170,829L-126,715Z" fill="#967d96" stroke="#967d96" stroke-width="1.51"/><path d="M-167,990L-151,1222L-139,1093Z" fill="#545556" stroke="#545556" stroke-width="1.51"/><path d="M-201,292L-234,513L-140,391Z" fill="#996f9d" stroke="#996f9d" stroke-width="1.51"/><path d="M-167,990L-191,907L-151,1222Z" fill="#5c5d5d" stroke="#5c5d5d" stroke-width="1.51"/><path d="M-229,-26L-237,132L-161,85Z" fill="#6f3b7c" stroke="#6f3b7c" stroke-width="1.51"/><path d="M-234,513L-191,907L-170,829Z" fill="#8c788a" stroke="#8c788a" stroke-width="1.51"/><path d="M-237,132L-234,513L-201,292Z" fill="#8b6193" stroke="#8b6193" stroke-width="1.51"/></svg>